<svg id="Ebene_1" data-name="Ebene 1" xmlns="http://www.w3.org/2000/svg" viewBox="0 0 309.78 111.87"><title>WAGO_Logo_v1</title><path d="M460.53,293.85v7.09h9.92v6.38H450.61V287.47h42.52V264.79H436.43a8.5,8.5,0,0,0-8.5,8.5v48.19a8.5,8.5,0,0,0,8.5,8.5h48.19a8.5,8.5,0,0,0,8.5-8.5V293.85Z" transform="translate(-256.48 -241.45)" fill="#8bb63a"/><path d="M557.76,264.79H509.57a8.51,8.51,0,0,0-8.5,8.5v48.19a8.5,8.5,0,0,0,8.5,8.5h48.19a8.5,8.5,0,0,0,8.5-8.5V273.29a8.5,8.5,0,0,0-8.5-8.5m-14.17,42.52H523.74V287.47h19.84Z" transform="translate(-256.48 -241.45)" fill="#8bb63a"/><path d="M381.88,264.79l-46.94,72.28h-8.13l10.55,16.25,34.8-16.25H362l12-18.43h23.37V330H420v-65.2Zm-.57,42.52,16-24.64v24.64Z" transform="translate(-256.48 -241.45)" fill="#8bb63a"/><polygon points="26.97 88.54 46.63 58.26 46.63 88.54 73.87 88.54 120.81 16.25 128.15 16.25 117.6 0 82.8 16.25 93.52 16.25 69.31 53.53 69.31 23.34 42.27 23.34 22.68 53.51 22.68 23.34 0 23.34 0 88.54 26.97 88.54" fill="#8bb63a"/></svg>