<?xml version="1.0" standalone="no"?>
<!DOCTYPE svg PUBLIC "-//W3C//DTD SVG 20010904//EN"
 "http://www.w3.org/TR/2001/REC-SVG-20010904/DTD/svg10.dtd">
<svg version="1.0" xmlns="http://www.w3.org/2000/svg"
 width="539.000000pt" height="539.000000pt" viewBox="0 0 539.000000 539.000000"
 preserveAspectRatio="xMidYMid meet">
<metadata>
Created by potrace 1.11, written by Peter Selinger 2001-2013
</metadata>
<g transform="translate(0.000000,539.000000) scale(0.100000,-0.100000)"
fill="#000000" stroke="none">
<path d="M4830 4579 c-77 -37 -156 -74 -420 -196 -106 -49 -158 -74 -295 -138
-66 -32 -181 -85 -255 -120 -74 -34 -182 -85 -240 -112 -58 -27 -120 -56 -138
-64 -30 -13 -14 -14 188 -19 l220 -5 -214 -330 c-118 -181 -233 -359 -256
-395 -22 -36 -121 -189 -220 -340 -98 -151 -207 -320 -242 -375 l-63 -100 -3
627 -2 626 -565 0 -564 0 -107 -165 c-59 -91 -139 -214 -178 -273 -88 -134
-147 -226 -164 -254 -7 -12 -39 -61 -72 -111 -32 -49 -82 -126 -110 -170 -28
-44 -80 -125 -116 -179 l-64 -99 -1 74 c0 41 0 322 0 626 l0 552 -474 -1 -475
0 0 -1362 0 -1363 559 0 c308 0 563 3 568 6 4 3 13 14 18 24 6 9 44 70 86 135
80 122 358 550 414 637 142 220 296 455 299 455 0 0 1 -282 1 -628 l0 -627
568 -1 567 -1 103 159 c56 87 128 197 159 246 31 48 84 130 118 182 34 52 120
185 191 295 72 110 174 267 227 350 53 82 133 205 177 272 44 68 107 165 140
215 32 51 100 156 150 233 51 77 163 250 250 385 87 135 190 295 230 355 39
61 103 158 141 217 l69 107 153 3 152 3 -42 65 c-46 71 -104 161 -223 345 -43
66 -98 152 -124 192 -25 40 -48 72 -51 73 -3 0 -34 -14 -70 -31z"/>
</g>
</svg>
